# xmcd
#
# Track frame offsets:
#	150
#	24909
#	44270
#	65075
#	81296
#	98052
#	113595
#	129906
#	144682
#	161978
#	183608
#	206437
#
# Disc length: 2969 seconds
#
# Revision: 0
# Processed by: cddbd v1.5.2PL0 Copyright (c) Steve Scherf et al.
# Submitted via: audiograbber 1.83.01
#
DISCID=a40b970c
DTITLE=CDPool - Street October 09 CD2
DYEAR=2009
DGENRE=R&B
TTITLE0=Q-Tip - Even If It Is So
TTITLE1=Eric Roberson Ft T3 From Slum Village - Further
TTITLE2=Robert Strauss Ft Ayah - Odyssey Man
TTITLE3=50 Cent Ft Ne-Yo - Baby By Me
TTITLE4=Sean Paul - Press It Up
TTITLE5=Lukie D - Love Again (Album Version)
TTITLE6=Mandel - Jealousy 2.0
TTITLE7=Apathy Ft B-Real and Celph Titled - Shoot First (Explicit)
TTITLE8=Beatmonstas - Beats N Rhymes (Explicit)
TTITLE9=Dekata Project - At Least We Can Dance (Roska Loves Dancing Mix)
TTITLE10=Uche - Get Low
TTITLE11=Roxy 5000 Ft Miss Prince - Hey Kid
EXTD=
EXTT0=
EXTT1=
EXTT2=
EXTT3=
EXTT4=
EXTT5=
EXTT6=
EXTT7=
EXTT8=
EXTT9=
EXTT10=
EXTT11=
PLAYORDER=
